<svg width="24" height="24" version="1.1" viewBox="0 0 6.35 6.35" xmlns="http://www.w3.org/2000/svg">
 <g transform="translate(0 -290.65)" fill="none" stroke="#000" stroke-linecap="round">
  <path d="m4.2333 293.82a1.0583 1.3229 0 0 1-1.0583 1.3229 1.0583 1.3229 0 0 1-1.0583-1.3229 1.0583 1.3229 0 0 1 1.0583-1.3229 1.0583 1.3229 0 0 1 1.0583 1.3229z" stroke-width=".52917"/>
  <rect x=".26458" y="291.97" width="5.8208" height="3.7042" rx=".74414" ry=".74414" stroke-width=".52917"/>
  <g stroke-width=".52917">
   <path d="m1.5913 292.24a1.0583 1.0583 0 0 1-1.0583 1.0583"/>
   <path d="m5.8209 293.3a1.0583 1.0583 0 0 1-0.74835-0.30998 1.0583 1.0583 0 0 1-0.30998-0.74835"/>
   <path d="m4.7625 295.41a1.0583 1.0583 0 0 1 1.0583-1.0583"/>
   <path d="m0.53293 294.35a1.0583 1.0583 0 0 1 1.0583 1.0583"/>
  </g>
 </g>
</svg>
