<svg xmlns="http://www.w3.org/2000/svg" viewBox="0 0 303.43 279.73"><defs><style>.cls-1,.cls-3,.cls-5{fill:#231f20;}.cls-2{fill:#414042;stroke:#414042;}.cls-2,.cls-3,.cls-4,.cls-5{stroke-miterlimit:10;}.cls-3,.cls-5{stroke:#231f20;}.cls-4{fill:#fff;stroke:#fff;}.cls-5{stroke-linecap:round;}</style></defs><g id="Layer_1" data-name="Layer 1"><path class="cls-1" d="M188.73,146.37c-19.54-14.25-40.89-28.84-66-28.92a54.65,54.65,0,0,0-17.59,2.71c-2.59.88-5.9,1.81-7.69,4-2,2.46-1.44,6.12-1.43,9.06,0,12.32.72,25,6.26,36.21A38.17,38.17,0,0,0,114,183.64c5.43,3.93,12,6,18.55,7.15a2.58,2.58,0,0,0,3.08-1.75,2.53,2.53,0,0,0-1.75-3.08,42.85,42.85,0,0,1-15.57-5.43,31,31,0,0,1-10-10.47c-5.79-9.64-7-21-7.23-32.06-.06-3-.11-6,0-9,0-.87,0-1.56.75-2.09a14.87,14.87,0,0,1,3.48-1.54,49.35,49.35,0,0,1,16.18-3c11.08-.21,22,2.75,32,7.44,11.77,5.53,22.39,13.15,32.87,20.78a2.52,2.52,0,0,0,3.42-.89,2.56,2.56,0,0,0-.9-3.42Z" transform="translate(-95.89 -116.57)"/><path class="cls-1" d="M128.78,191.33l-10.2,59.57-5.14,30c-.84,4.91-1.85,9.84-2.47,14.79a18.27,18.27,0,0,0,.32,7.14,21.85,21.85,0,0,0,3,6.11,213,213,0,0,0,31.42,37.34A193,193,0,0,0,185,375.19c15.9,8.75,33,14.36,50.46,19.14l6.94,1.88c3.11.83,4.44-4,1.33-4.83-17.4-4.69-34.77-9.54-50.91-17.71a183.72,183.72,0,0,1-39-26.69,211.25,211.25,0,0,1-31.54-35.18c-1.17-1.65-2.32-3.3-3.44-5a18.7,18.7,0,0,1-2.74-5.28,15.39,15.39,0,0,1,0-6.55c.38-2.44.82-4.88,1.24-7.31l5-29.3,10-58.34,1.27-7.39a2.58,2.58,0,0,0-1.75-3.07,2.53,2.53,0,0,0-3.08,1.75Z" transform="translate(-95.89 -116.57)"/><path class="cls-1" d="M180.92,156.39a114.16,114.16,0,0,1,49.32-13.11,117.67,117.67,0,0,1,14.78.45,2.51,2.51,0,0,0,2.5-2.5,2.56,2.56,0,0,0-2.5-2.5,118.79,118.79,0,0,0-52.75,7.09,120.71,120.71,0,0,0-13.87,6.25c-2.85,1.5-.33,5.82,2.52,4.32Z" transform="translate(-95.89 -116.57)"/><path class="cls-1" d="M110.1,149.2a54.51,54.51,0,0,0,26.54,20,2.52,2.52,0,0,0,3.08-1.74,2.56,2.56,0,0,0-1.75-3.08,48.76,48.76,0,0,1-23.55-17.71,2.57,2.57,0,0,0-3.42-.9,2.53,2.53,0,0,0-.9,3.42Z" transform="translate(-95.89 -116.57)"/></g><g id="Layer_5" data-name="Layer 5"><path class="cls-2" d="M133.35,190.37c-9.59,41,0,72.18,0,72.18C124.76,292.79,167,327.91,167,327.91c24.69,15.61,55.65,17.56,55.65,17.56,18,13.65,0-96.57,0-96.57-24-68.29-12-30.24-24-68.29s-22.81-26.93-22.81-26.93C142.74,151.35,133.35,190.37,133.35,190.37Z" transform="translate(-95.89 -116.57)"/><path class="cls-2" d="M183.11,219.91" transform="translate(-95.89 -116.57)"/><path class="cls-3" d="M201.93,245.78" transform="translate(-95.89 -116.57)"/><path class="cls-1" d="M301.41,149.81c19.67-13.2,40.68-26.67,65-28.11a62.79,62.79,0,0,1,17.3,1.23,50.62,50.62,0,0,1,8.45,2.59c.82.34,1.74.63,2,1.52.41,1.29.1,3,.1,4.38,0,11.73-.42,24-6.06,34.58A33.88,33.88,0,0,1,377,178.69c-5.56,3.61-12.05,5.37-18.54,6.4a2.53,2.53,0,0,0-1.74,3.08,2.56,2.56,0,0,0,3.07,1.75,53.35,53.35,0,0,0,17.91-5.81,37.76,37.76,0,0,0,12.68-11.92c7.12-10.6,8.68-23.55,8.89-36,0-1.74,0-3.48,0-5.22a22.94,22.94,0,0,0-.23-5c-.76-3.38-3.85-4.59-6.77-5.68a61,61,0,0,0-18.43-3.58c-12.73-.59-25.46,2.3-37.17,7.16-13.48,5.61-25.73,13.57-37.81,21.69-2.66,1.78-.16,6.11,2.52,4.31Z" transform="translate(-95.89 -116.57)"/><path class="cls-1" d="M358.85,191.78l11.21,60.27,5.6,30.13,1.41,7.6a56.68,56.68,0,0,1,1.13,7,10.77,10.77,0,0,1-1.41,6.28,52.18,52.18,0,0,1-3.73,5.35,218.94,218.94,0,0,1-33.32,35.32,202.9,202.9,0,0,1-41.15,27.12c-16.67,8.26-34.45,13.43-52.43,17.95l-7,1.75c-3.13.78-1.8,5.6,1.32,4.83,18.84-4.68,37.62-9.56,55.33-17.67a205.5,205.5,0,0,0,43-26.74,220.34,220.34,0,0,0,35.07-35.47c2.62-3.33,5.59-6.72,7.56-10.48a15.25,15.25,0,0,0,1.82-7.3,43.46,43.46,0,0,0-1-7.52l-5.69-30.62-11.44-61.49-1.41-7.6a2.5,2.5,0,0,0-4.82,1.33Z" transform="translate(-95.89 -116.57)"/><path class="cls-1" d="M309.9,151.2a138.31,138.31,0,0,0-72.24-13.34,2.57,2.57,0,0,0-2.5,2.5,2.51,2.51,0,0,0,2.5,2.5A135.31,135.31,0,0,1,293,149.58a125,125,0,0,1,14.38,5.94,2.56,2.56,0,0,0,3.42-.9,2.53,2.53,0,0,0-.89-3.42Z" transform="translate(-95.89 -116.57)"/><path class="cls-1" d="M379.66,145.81A52.93,52.93,0,0,1,354,163.52c-3.06,1-1.75,5.81,1.32,4.82a58.68,58.68,0,0,0,28.7-20,2.52,2.52,0,0,0-.9-3.42,2.57,2.57,0,0,0-3.42.9Z" transform="translate(-95.89 -116.57)"/><path class="cls-2" d="M358.92,189.5c10.41,41,0,72.18,0,72.18C368.24,291.92,322.4,327,322.4,327,295.59,342.64,262,344.6,262,344.6c-19.52,13.65,0-96.57,0-96.57,26-68.29,13-30.24,26-68.29s24.76-26.93,24.76-26.93C348.73,150.48,358.92,189.5,358.92,189.5Z" transform="translate(-95.89 -116.57)"/><path class="cls-2" d="M304.88,219" transform="translate(-95.89 -116.57)"/><path class="cls-3" d="M284.45,244.91" transform="translate(-95.89 -116.57)"/><ellipse class="cls-4" cx="203.03" cy="174.48" rx="25.78" ry="23.74"/><ellipse class="cls-3" cx="201.9" cy="175.17" rx="19.16" ry="17.64"/><path class="cls-3" d="M243.05,368l-18.66-32.32h37.33Z" transform="translate(-95.89 -116.57)"/><line class="cls-5" x1="150" y1="230.93" x2="139.66" y2="230.93"/></g><g id="Layer_2" data-name="Layer 2"><circle class="cls-4" cx="92.71" cy="175.36" r="23.74"/><circle class="cls-3" cx="93.75" cy="176.04" r="17.64"/></g></svg>