<svg xmlns="http://www.w3.org/2000/svg" viewBox="0 0 27.3 25.83"><defs><style>.cls-1,.cls-5{fill:#fff;}.cls-1,.cls-3,.cls-4{stroke:#231f20;}.cls-1,.cls-2,.cls-3,.cls-4,.cls-5{stroke-miterlimit:10;}.cls-1,.cls-2,.cls-3{stroke-width:2px;}.cls-2{fill:#58595b;stroke:#58595b;}.cls-3{fill:none;}.cls-4{fill:#231f20;}.cls-5{stroke:#fff;}</style></defs><g id="Layer_4" data-name="Layer 4"><path class="cls-1" d="M27.15,16c2.38,5.21-4.81,13.06-10.76,13.06S2.91,21.44,5.64,16,10.45,5.25,16.39,5.25,24.69,10.6,27.15,16Z" transform="translate(-3.04 -4.25)"/></g><g id="Layer_2" data-name="Layer 2"><path class="cls-2" d="M7.11,14.63c-.54,1.72,3.94,9.11,5.38,9.24s1.14-14.56-.71-15.29S7.11,14.63,7.11,14.63Z" transform="translate(-3.04 -4.25)"/><path class="cls-2" d="M25.57,14.79c.48,1.69-4,8.8-5.43,8.88S19.42,9.46,21.22,8.78,25.57,14.79,25.57,14.79Z" transform="translate(-3.04 -4.25)"/></g><g id="Layer_1" data-name="Layer 1"><path class="cls-3" d="M27.21,16c2.38,5.22-4.81,13.07-10.76,13.07S3,21.45,5.7,16,10.51,5.26,16.45,5.26,24.75,10.61,27.21,16Z" transform="translate(-3.04 -4.25)"/><ellipse class="cls-4" cx="13.36" cy="21.45" rx="1.23" ry="0.88"/><path class="cls-1" d="M5.47,13.87c-2.45-6-1-7.66-1-7.66,2-1.53,6.46.41,6.46.41Z" transform="translate(-3.04 -4.25)"/><path class="cls-1" d="M27.55,13.94C30.37,8.08,29,6.36,29,6.36c-1.9-1.66-6.49,0-6.49,0Z" transform="translate(-3.04 -4.25)"/></g><g id="Layer_3" data-name="Layer 3"><circle class="cls-4" cx="7.92" cy="15.52" r="2.03"/><circle class="cls-4" cx="18.53" cy="15.52" r="2.03"/><circle class="cls-5" cx="7.19" cy="15.04" r="0.8"/><circle class="cls-5" cx="17.69" cy="15.04" r="0.8"/></g></svg>