<svg width="24" height="24" version="1.1" viewBox="0 0 6.35 6.35" xmlns="http://www.w3.org/2000/svg">
 <g transform="translate(0 -290.65)" fill="none" stroke="#000" stroke-linecap="round" stroke-width=".52917">
  <path d="m0.81223 290.91 4.744 6e-3c0.35785 4.5e-4 0.52917 0.39519 0.52917 1.0583v4.6302l-0.79375-0.39688-0.79375 0.39688-0.79375-0.39688-0.79375 0.39688-0.79375-0.39688-0.79375 0.39688v-4.6301c0-0.80574-0.16535-1.0511-0.52917-1.0585-0.36382-8e-3 -0.53104 0.50267-0.52916 1.0583l1.0583-1.5e-4"/>
  <path d="m2.1167 292.77h3.175"/>
  <path d="m2.1167 293.82h1.8521"/>
  <path d="m4.7625 293.82h0.52917"/>
  <path d="m2.1167 294.88h1.8521"/>
  <path d="m4.7625 294.88h0.52917"/>
 </g>
</svg>
